<svg width="130" height="20" viewBox="0 0 130 20" fill="none" xmlns="http://www.w3.org/2000/svg">
<path id="Vector" d="M0.961044 13.2211C1.21979 13.0934 1.4785 12.9402 1.77422 12.8126C2.55045 12.5062 3.40063 12.2253 4.02901 11.7658C4.17686 11.6637 4.39864 11.5871 4.58347 11.5105C5.02702 11.3317 5.58147 11.2296 5.87718 10.9743C6.54252 10.4382 7.57747 10.2594 8.20584 9.69774C8.27977 9.62115 8.46458 9.59562 8.57548 9.57008C9.09296 9.44243 9.42565 9.18711 9.79528 8.9318C9.90617 8.8552 10.0171 8.70202 10.1649 8.65096C10.9781 8.39564 11.6065 7.96161 12.3088 7.57864C13.7873 6.78717 15.4137 6.14888 16.9662 5.38294C17.4467 5.15316 18.0012 4.99997 18.6295 4.99997C18.6665 5.17869 18.7404 5.30635 18.7404 5.45953C18.6665 6.12335 18.4077 6.76163 17.8903 7.32333C17.7794 7.45098 17.6685 7.57864 17.5576 7.7063C16.9292 8.65096 16.2269 9.57009 15.4137 10.4382C15.3398 10.5147 15.2658 10.6169 15.1919 10.6935C14.5266 11.6892 14.1569 12.7615 13.7873 13.8083C13.7503 13.8849 13.7503 13.9615 13.7503 14.0381C13.9352 14.8295 14.12 15.5955 15.1919 16.1061C15.4137 16.2082 15.5616 16.3614 15.7464 16.4636C16.2269 16.7189 16.6705 16.9742 17.188 17.1529C17.8533 17.4082 18.6295 17.4848 19.3318 17.3827C20.145 17.2806 20.9952 17.0763 21.6975 16.7955C22.2149 16.6167 22.6955 16.5146 23.2499 16.5146C23.3978 16.4125 23.5087 16.3104 23.6196 16.2082C23.8783 15.9785 24.137 15.7997 24.6176 15.8253C24.7285 15.8253 24.8394 15.7997 24.9133 15.7487C25.3938 15.4934 25.9852 15.4168 26.4288 15.1359C26.7984 14.9061 27.242 14.7274 27.6855 14.5232C28.5357 14.1147 29.4228 13.7572 30.236 13.3487C31.271 12.8381 32.3059 12.3019 33.3039 11.7403C34.8934 10.8467 36.5198 9.95306 38.0722 9.00839C39.5508 8.14033 40.9553 7.19567 42.4339 6.30207C43.0622 5.9191 43.8015 5.61272 44.4299 5.20422C45.2431 4.64253 46.2041 4.23403 47.1652 3.77446C47.5348 3.59574 47.9414 3.49362 48.385 3.41702C49.0503 3.28937 49.383 3.51915 49.3091 3.97871C49.2721 4.15743 49.2352 4.33615 49.1243 4.48934C48.5329 5.40847 47.9414 6.35313 47.2761 7.24673C46.7956 7.91055 46.4259 8.59989 46.0193 9.28924C45.5758 10.0297 45.1322 10.7956 44.4299 11.4594C44.1342 11.7147 43.9863 11.97 43.9124 12.2764C43.8015 12.7104 43.6907 13.1189 43.5798 13.4509C43.6537 13.8594 43.7276 14.1913 43.8015 14.5487C43.8385 14.753 43.9124 14.9572 44.0233 15.1359C44.2081 15.4168 44.4669 15.6721 44.6887 15.9274C44.8365 16.0806 44.9474 16.2593 45.1322 16.3359C45.6127 16.5912 46.0933 16.821 46.6107 16.9997C47.2391 17.2295 47.9045 17.4338 48.6068 17.1274C48.6807 17.1018 48.7546 17.0763 48.8285 17.1018C49.4939 17.255 50.0484 17.0252 50.6028 16.821C50.9724 16.6933 51.3421 16.6167 51.7117 16.4891C52.4879 16.2338 53.3381 16.004 54.0773 15.6721C54.7057 15.3657 55.408 15.1359 56.0733 14.8551C56.2951 14.7785 56.48 14.6508 56.7018 14.5487C56.9605 14.421 57.2562 14.2934 57.5149 14.1657C58.5129 13.7317 59.5109 13.3232 60.472 12.8381C62.0245 12.0211 63.54 11.1786 65.0555 10.3105C66.2383 9.62115 67.4211 8.9318 68.567 8.21692C69.1953 7.83395 69.8237 7.42545 70.489 7.06801C71.2283 6.65951 72.0415 6.30207 72.6699 5.79144C72.8177 5.66379 73.0765 5.58719 73.2982 5.48506C73.4461 5.40847 73.6309 5.35741 73.7418 5.28082C74.5181 4.71912 75.553 4.41275 76.4401 3.95318C76.588 3.87659 76.7728 3.79999 76.9207 3.92765C76.9207 3.97871 76.9576 4.02977 76.9207 4.08084C76.588 4.56593 76.2554 5.05103 75.9227 5.5106C75.8488 5.61272 75.6639 5.68931 75.516 5.74038C75.0355 5.94463 75.0355 5.94463 74.7398 6.27654C74.8507 6.30207 74.9986 6.35313 75.1834 6.40419C74.6659 6.88929 74.1484 7.37439 74.0006 7.96161C74.0006 8.0382 73.8897 8.08926 73.8527 8.16586C73.594 8.4467 73.3352 8.70202 73.0765 8.98287C72.8547 9.51902 72.3742 9.95306 71.9676 10.4382C71.3022 11.1786 70.526 11.8679 69.9715 12.6594C69.9715 12.9147 69.8607 13.1445 69.528 13.2721C69.491 13.7317 69.1953 14.0891 68.6409 14.3445C68.567 14.4466 68.493 14.5487 68.4191 14.6508C68.3082 14.7785 68.2343 14.9061 68.0864 15.0083C67.6798 15.3402 67.4581 15.6976 67.4581 16.1061C67.4581 16.2082 67.3841 16.3104 67.3472 16.4125C67.0884 17.3061 67.5689 18.0465 68.4561 18.7103C69.0105 19.1188 69.7498 19.2975 70.3782 19.6039C71.561 20.1911 72.8178 19.9869 74.0745 19.8592C74.2593 19.8337 74.4811 19.7316 74.629 19.655C74.8507 19.5018 75.0725 19.3741 75.4052 19.3741C75.8857 19.3741 75.9596 19.0933 76.1445 18.8635H76.9946C77.6969 18.5571 78.3622 18.3018 78.9537 18.0465C79.2863 17.8933 79.619 17.7401 79.9147 17.5359C80.3583 17.204 80.691 16.7955 81.4672 16.7699C81.615 16.7699 81.7629 16.6167 81.9107 16.5402C82.4652 16.2848 82.9827 16.0295 83.5371 15.7742C83.685 15.6976 83.9067 15.6721 83.9807 15.57C84.3133 15.238 84.8308 15.1104 85.3483 14.9827C85.4592 14.753 85.5701 14.5487 85.718 14.3189C86.1246 14.5232 86.4572 14.4721 86.716 14.2168C86.9747 13.987 87.2704 13.7317 87.5661 13.5274C87.7879 13.3998 88.0467 13.2211 88.3054 13.2211C88.8229 13.1955 89.0816 12.9913 89.4143 12.787C90.3384 12.1998 91.3364 11.6892 92.3344 11.153C93.1845 10.719 94.0716 10.3105 94.5152 9.62115C94.9588 9.72328 95.3284 9.67221 95.6611 9.49349C95.8828 9.39137 96.0677 9.26371 96.2525 9.16158C96.77 8.82968 97.2505 8.47224 97.768 8.14033C98.2485 7.80842 98.9138 7.52757 99.5053 7.39992C99.4313 7.47651 99.3944 7.55311 99.3204 7.60417C98.6551 8.26798 97.9897 8.9318 97.3244 9.62115C97.0657 9.87646 96.9548 10.1828 96.6961 10.4126C95.8459 11.2296 94.9957 12.0466 94.1086 12.8636C93.2585 13.6296 92.5931 14.4976 91.9278 15.3402C91.7799 15.5189 91.706 15.7231 91.5951 15.9019C91.4472 16.1572 91.4842 16.387 91.6321 16.6423C91.8539 16.9997 92.0756 17.3316 92.2974 17.6891C92.4822 17.9699 92.7779 18.1997 93.1845 18.3529C93.5172 18.4805 93.8868 18.6337 94.1825 18.838C94.6261 19.1188 95.1436 19.3231 95.6611 19.5273C96.6221 19.8848 97.5462 19.8848 98.5073 19.5784C98.9139 19.4507 99.3204 19.3486 99.727 19.2465C100.281 19.0933 100.873 18.9401 101.427 18.7869C101.834 18.6593 102.241 18.5316 102.647 18.4039C104.052 17.8678 105.493 17.3572 106.861 16.7444C106.898 16.7189 106.935 16.7189 106.935 16.6933C108.044 16.2082 109.227 15.7487 110.299 15.2381C111.297 14.7785 112.184 14.2423 113.145 13.7572C113.293 13.6806 113.477 13.5785 113.625 13.5019C114.771 12.9402 115.843 12.353 116.915 11.7403C119.096 10.5147 121.24 9.26371 123.236 7.91054C123.753 7.57864 124.234 7.24673 124.714 6.88929C125.823 6.09782 126.858 5.28081 127.93 4.46381C128.632 3.92765 129.261 3.36596 129.926 2.8298C130 2.77874 130 2.70214 130 2.65108C129.556 2.31917 129.15 2.0128 128.706 1.68089C128.595 1.57876 128.448 1.50217 128.3 1.42558C127.597 1.0426 126.969 1.1192 126.415 1.60429C126.193 1.80855 125.934 1.98726 125.675 2.16598C125.454 2.31917 125.195 2.47236 124.973 2.65108C124.456 3.00852 123.975 3.39149 123.494 3.77446C123.384 3.85106 123.273 3.90212 123.162 3.92765C122.312 4.23403 121.535 4.59147 120.944 5.12763C120.87 5.20422 120.722 5.22975 120.574 5.25528C119.983 5.40847 119.465 5.61272 119.281 6.09782C119.244 6.25101 118.985 6.37866 118.837 6.53185C118.357 6.35313 117.95 6.40419 117.617 6.65951C117.063 7.06801 116.397 7.39992 116.139 7.96161C116.102 8.01267 116.065 8.0382 115.991 8.08927C115.843 8.16586 115.658 8.24245 115.547 8.06373C115.399 7.85948 115.178 7.91054 114.993 7.98714C114.66 8.14033 114.401 8.37011 114.069 8.5233C113.477 8.82968 112.886 9.11052 112.332 9.4169C111.851 9.67221 111.407 9.95306 111.038 10.285C110.89 10.4126 110.594 10.4637 110.372 10.4892C110.262 10.4892 110.114 10.3616 109.929 10.2339C109.818 10.3616 109.633 10.4892 109.596 10.6169C109.559 10.9743 109.19 11.2041 108.931 11.4594C108.229 11.5105 107.822 11.9445 107.194 12.0977C107.046 12.0211 106.935 11.9445 106.75 11.8424C106.75 11.8424 106.75 11.8424 106.713 11.8168C106.602 11.919 106.417 12.0211 106.417 12.0977C106.454 12.2764 106.38 12.4041 106.196 12.5062C105.863 12.6849 105.53 12.8892 105.161 13.0679C104.791 13.2466 104.384 13.4253 104.089 13.6806C104.052 13.7062 104.015 13.7317 104.015 13.7572C103.978 13.8083 103.904 13.8338 103.83 13.8849C103.719 13.9615 103.571 14.0381 103.423 14.1147C103.386 14.1402 103.312 14.1402 103.239 14.1657C103.128 14.0891 103.054 14.0381 102.943 13.987C102.388 14.2168 102.388 14.2168 101.908 14.2679C102.019 14.1147 102.093 13.987 102.204 13.8594C102.388 13.6296 102.61 13.4253 102.795 13.2211C103.497 12.3785 104.163 11.536 104.865 10.6935C105.308 10.1828 105.752 9.69774 105.937 9.11052C105.937 9.05946 105.974 9.0084 106.011 8.95733C106.306 8.65096 106.528 8.31905 106.75 7.98714C106.972 7.65523 107.157 7.29779 107.378 6.96588C107.711 6.50632 107.933 6.02122 108.007 5.53613C108.192 4.66806 108.34 3.82553 108.081 2.95746C107.97 2.54896 107.711 2.19151 107.268 1.91067C107.009 1.73195 106.713 1.57876 106.454 1.40004C106.085 1.19579 105.715 0.966009 105.345 0.761759C105.087 0.60857 104.791 0.506445 104.569 0.378788C103.904 -0.0552464 103.202 -0.106306 102.351 0.17454C101.982 0.302197 101.649 0.455385 101.243 0.429853C101.132 0.429853 101.021 0.404322 100.91 0.353258C100.836 0.327726 100.762 0.327726 100.688 0.353258C100.06 0.608572 99.2835 0.710697 98.8769 1.17026C98.5812 1.50217 98.1376 1.73195 97.6201 1.88514C97.2505 2.0128 96.9178 2.14046 96.5112 2.26811C96.2525 2.06386 96.0307 1.85961 95.735 1.62983C95.5502 1.78302 95.4393 1.88514 95.2914 1.98726C95.2175 2.06386 95.1436 2.19152 95.0327 2.19152C94.5152 2.24258 94.3304 2.54896 94.0717 2.77874C93.8868 2.93193 93.702 3.08511 93.4433 3.18724C93.1845 3.28936 92.9628 3.44255 92.741 3.57021C92.5562 3.67233 92.3713 3.82552 92.1495 3.90212C91.5951 4.08084 91.1516 4.33615 90.745 4.617C90.4123 4.84678 90.0426 5.07656 89.5252 5.05103C89.4143 5.05103 89.2664 5.10209 89.1555 5.17869C88.7859 5.38294 88.4532 5.61272 88.0836 5.81697C87.9727 5.86803 87.8248 5.97016 87.7139 5.94463C87.3443 5.86803 87.0856 6.09782 86.7529 6.09782C86.0876 6.07229 85.644 6.35313 85.2005 6.60845C84.6091 6.96589 84.0916 7.34886 83.5741 7.75736C83.2414 8.0382 82.9457 8.31905 82.4652 8.49777C82.1695 8.59989 82.0216 8.80414 82.0955 9.00839C82.2434 9.36583 82.0216 9.67221 81.7629 9.95305C81.578 10.1828 81.4302 10.4637 81.0605 10.6169C80.9497 10.6679 80.9497 10.8467 81.2454 10.8977C81.7259 10.5913 82.2064 10.3105 82.5021 9.87646C82.613 9.67221 82.9087 9.54456 83.1305 9.36584C83.0936 9.44243 83.0935 9.54456 83.0196 9.62115C82.687 10.0297 82.4652 10.4637 82.0216 10.8722C81.689 11.1786 81.7629 11.2552 82.2804 11.5105C82.4282 11.5615 82.5761 11.6126 82.7979 11.6892C82.5761 11.8424 82.4282 11.9445 82.2804 12.0466C81.7998 12.353 81.2454 12.6083 80.8757 13.0168C80.8388 13.0424 80.8757 13.1189 80.8757 13.1445C80.9866 13.1445 81.1345 13.17 81.4302 13.17C81.1714 13.2977 81.0236 13.3998 80.8757 13.4509C80.3952 13.553 79.9147 13.6551 79.3972 13.7317C79.0276 13.7828 78.7688 13.8594 78.7688 14.1657C78.7688 14.2168 78.658 14.2679 78.5471 14.3445C78.4362 14.2168 78.3253 14.0891 78.2513 13.987C78.6949 13.7062 79.1015 13.4253 79.5451 13.17C80.0995 12.8636 80.3213 12.4551 80.2843 11.97C80.2474 11.7913 80.2843 11.6126 80.3213 11.4339C80.4322 11.0509 80.5431 10.6679 80.654 10.2339C80.4322 10.3105 80.2474 10.3871 80.0995 10.3871C79.9517 10.3871 79.7668 10.336 79.5451 10.3105C79.4342 10.5658 79.2124 10.7956 79.2494 10.9743C79.4342 11.4083 79.0276 11.6381 78.6949 11.8934C78.3623 12.1488 77.9557 12.3785 77.586 12.6338C77.5491 12.6594 77.586 12.7104 77.586 12.7615C77.8078 12.736 77.9926 12.7104 78.2144 12.6849C78.1774 12.9402 78.1774 13.17 78.1405 13.3998C78.1035 13.5019 78.0296 13.6551 77.7708 13.604C77.8078 13.4509 77.8078 13.2977 77.8078 13.1445C77.8078 13.1189 77.7708 13.1189 77.6969 13.0679C77.3273 13.1445 77.1055 13.3232 76.9576 13.5274C77.0685 13.6551 77.1425 13.7572 77.2534 13.8594C77.0685 14.0381 76.8837 14.1913 76.6989 14.3445C76.5141 14.3955 76.2923 14.421 76.1075 14.5232C75.8118 14.6764 75.59 14.6508 75.3682 14.4976C75.3313 13.7317 75.7379 13.1189 76.6989 12.7104C76.8837 12.6339 77.1425 12.5573 77.2164 12.4296C77.4751 12.0211 77.8817 11.7403 78.3623 11.3573C78.0296 11.2552 77.7708 11.1786 77.5121 11.102C77.7339 10.7445 77.9557 10.4126 78.1405 10.0552C78.3992 9.57009 78.6579 9.11052 78.8427 8.59989C78.9906 8.08927 79.2863 7.60417 79.619 7.11907C79.656 7.04248 79.6929 6.96588 79.6929 6.88929C79.8408 6.19994 79.9886 5.48507 80.0995 4.77019C80.1365 4.64253 80.0626 4.51487 80.0256 4.38722C79.9517 4.10637 79.8778 3.82552 79.8038 3.57021C79.656 3.18724 79.5081 2.8298 79.0646 2.57449C78.7689 2.39577 78.3992 2.26811 78.1774 2.0128C77.9187 1.70642 77.3273 1.91067 76.9576 1.73195C76.8098 1.65536 76.625 1.62983 76.4771 1.55323C75.9966 1.62983 75.553 1.73195 75.1095 1.80855C74.592 1.57876 74.4072 1.55323 74.0375 1.70642C73.8527 1.78302 73.7049 1.91067 73.5201 1.98726C73.2613 2.11492 72.9656 2.21705 72.6699 2.31917C72.0046 2.54896 71.3023 2.77874 70.6 3.03405C70.4521 3.08512 70.2673 3.16171 70.1564 3.26383C69.528 3.87659 68.53 4.2085 67.7168 4.66806C67.6429 4.71912 67.532 4.77019 67.4211 4.77019C66.8667 4.71912 66.5709 5.0255 66.2013 5.20422C65.9795 5.30635 65.7208 5.45953 65.4251 5.48506C64.3901 5.56166 63.6508 5.97016 62.9485 6.40419C62.468 6.68504 62.0245 6.99141 61.5439 7.27226C61.507 7.29779 61.3961 7.29779 61.3222 7.29779C61.2113 7.2212 61.1003 7.11907 60.9155 6.99142C60.8046 7.11907 60.6568 7.2212 60.6568 7.32333C60.6938 7.57864 60.5459 7.75736 60.2872 7.93608C59.474 8.42117 58.7347 8.9318 57.8846 9.39137C57.5149 9.59562 57.2192 9.77434 57.1453 10.1062C57.1083 10.285 57.0344 10.4637 56.7018 10.4892C56.5539 10.4126 56.406 10.336 56.2212 10.2594C56.0734 10.3616 55.8516 10.4637 55.7777 10.5913C55.6298 10.9998 55.2232 11.2807 54.8905 11.6381C54.7796 11.7403 54.6318 11.8424 54.6318 11.97C54.5948 12.4551 53.9295 12.6594 53.6338 13.0424C53.5968 13.0934 53.3381 13.1189 53.2272 13.0679C53.1163 13.0424 53.0424 12.9147 53.0424 12.8381C53.0054 12.7615 53.1902 12.6594 53.0424 12.5573C52.6727 12.5062 52.377 12.5828 52.3031 12.8636C52.2661 12.9913 52.1922 13.1189 52.2292 13.2211C52.2661 13.3998 52.1922 13.5019 52.0443 13.6296C51.8226 13.8594 51.5269 13.9104 51.1573 14.0125C50.8615 14.0891 50.6767 14.37 50.4549 14.5487C50.418 14.5742 50.381 14.5742 50.344 14.5742C49.9744 14.5487 49.7526 14.7274 49.4569 14.8551C48.9764 15.0338 48.4959 15.2636 48.0154 15.4168C47.7197 15.5189 47.387 15.57 47.0543 15.3146C47.0912 14.7274 47.0912 14.0891 47.4239 13.5019C48.2371 12.0466 49.0503 10.6169 49.7526 9.13605C50.4919 7.60417 50.9724 6.07229 50.8615 4.43828C50.7876 3.39149 50.0483 2.67661 48.8285 2.14046C48.2371 1.88514 47.6457 1.6043 46.8695 1.68089C45.9454 1.78301 45.0213 1.96174 44.0972 2.08939C44.0603 2.08939 44.0233 2.11492 43.9864 2.11492C43.0623 2.4213 42.2491 2.88087 41.288 3.11065C41.1771 3.13618 41.1032 3.2383 40.9923 3.3149C40.8814 3.39149 40.8445 3.51915 40.7336 3.54468C39.6986 3.77446 39.0333 4.48934 37.9244 4.59146C37.8135 4.59146 37.7026 4.71912 37.5917 4.77019C37.4438 4.84678 37.3699 4.99997 37.1851 5.0255C36.4458 5.17869 36.0023 5.58719 35.4848 5.94463C35.3739 6.02122 35.1891 6.02122 35.0042 6.04676C35.0412 5.97016 35.0782 5.86804 35.1152 5.79144C34.8564 5.71485 34.7455 5.81697 34.5977 5.9191C34.228 6.14888 33.8954 6.35313 33.5257 6.55738C32.9343 6.91482 32.1951 7.19567 31.7515 7.68076C31.6776 7.73183 31.6036 7.78289 31.4927 7.83395C30.6426 8.26799 29.7924 8.70202 28.9423 9.16158C28.3139 9.49349 27.7225 9.8254 27.1311 10.1573C26.7615 10.3616 26.3918 10.5913 26.0591 10.7956C26.0222 10.8211 25.9852 10.8977 25.9482 10.9488C26.0591 11.0509 26.1331 11.1786 26.244 11.2807C26.0222 11.6637 25.3199 11.6637 25.0981 12.1488C25.3568 12.0211 25.4677 11.9445 25.6156 11.8934C25.7634 11.8424 25.9483 11.8168 26.244 11.7403C25.8743 12.3019 25.4307 12.5317 24.6915 12.5573C24.6915 12.2254 24.8024 11.9445 24.3218 11.6126C24.5436 12.1488 23.8783 12.4807 24.1001 12.9402C24.137 12.9913 23.9522 13.1189 23.8413 13.17C23.5456 13.3232 23.176 13.3998 22.9173 13.553C22.6216 13.7062 22.3628 13.9615 21.9932 14.0636C21.8823 14.0891 21.7714 14.0891 21.6605 14.1147C21.5126 14.0381 21.4018 13.9615 21.2539 13.8594C21.2909 13.7828 21.3648 13.6806 21.4387 13.5019C20.9952 13.6551 20.6625 13.7572 20.3298 13.8594C20.0341 13.9615 19.7384 14.0381 19.5166 14.2423C19.11 14.5998 18.5925 14.5998 18.0381 14.3955C17.8533 14.1147 17.8902 13.8594 18.0011 13.5785C18.112 13.2977 18.2229 13.0424 18.2599 12.7615C18.2969 12.353 18.4817 11.97 18.7034 11.5871C19.5166 10.1573 19.8123 8.65095 20.182 7.1446C20.3298 6.48079 20.2559 5.8425 20.145 5.17869C20.0341 4.33615 19.147 3.87659 18.4447 3.3149C18.3708 3.2383 18.1859 3.21277 18.0381 3.21277C17.4467 3.13618 16.8922 3.05958 16.3008 3.05958C15.7833 3.05958 15.118 2.95746 14.7114 3.26383C14.3417 3.57021 13.8612 3.6468 13.3807 3.7234C12.9002 3.79999 12.4566 3.85106 12.087 4.10637C11.9391 4.2085 11.6804 4.28509 11.4956 4.28509C10.6824 4.31062 10.091 4.69359 9.42565 4.92337C8.72334 5.15316 8.1319 5.56166 7.50353 5.89357C7.4296 5.94463 7.31874 5.94463 7.20785 5.94463C7.06 5.81697 6.91212 5.71485 6.72731 5.61272C6.39464 5.76591 6.02502 5.89357 5.76627 6.04676C5.47057 6.22548 5.32272 6.53185 4.99005 6.68504C4.69434 6.83823 4.25078 6.78716 3.91811 6.96588C3.10491 7.39992 2.25478 7.80842 1.44157 8.24245C1.33069 8.29352 1.21977 8.39564 1.18282 8.47224C1.07191 8.70202 0.813202 8.75308 0.517502 8.80414C0.406601 8.82967 0.2957 8.9318 0.221771 8.98287C0.554443 9.11052 0.591415 9.18711 0.369629 9.31477C0.258743 9.36583 0.147858 9.39136 0 9.44243V13.2977C0.036972 13.2977 0.0738983 13.2721 0.11087 13.2721C0.665314 13.3998 0.813187 13.2977 0.961044 13.2211ZM102.351 14.8551C102.388 14.8806 102.425 14.9317 102.425 14.9572C102.388 14.9827 102.351 15.0083 102.278 15.0338C102.241 15.0083 102.204 14.9572 102.204 14.9317C102.241 14.9061 102.314 14.8806 102.351 14.8551ZM102.832 15.3402C102.721 15.8508 102.204 15.8508 101.723 15.7997C102.019 15.5955 102.351 15.3912 102.832 15.3402ZM100.245 16.387L100.171 16.4125C100.171 16.3614 100.245 16.387 100.245 16.387ZM95.6611 3.97871C95.7719 3.92765 95.8828 3.90212 96.0307 3.87659L96.0677 3.92765C95.9568 4.00425 95.8829 4.05531 95.772 4.10637C95.772 4.10637 95.698 4.10637 95.5872 4.10637C95.6241 4.02978 95.6241 3.97871 95.6611 3.97871ZM95.0697 2.62555C95.0697 2.65108 95.1066 2.67661 95.1066 2.70214C95.1066 2.70214 95.0697 2.72768 95.0327 2.72768C95.0327 2.70215 95.0327 2.70214 94.9958 2.67661C95.0327 2.65108 95.0697 2.65108 95.0697 2.62555ZM92.741 5.71485C93.2585 5.94463 93.2585 5.99569 92.741 6.251V5.71485ZM90.0427 7.04248C90.0427 7.09354 89.9687 7.06801 89.9687 7.06801L90.0427 7.04248ZM87.2335 8.9318C87.1595 8.9318 87.1226 8.9318 87.0486 8.9318C87.0856 8.88074 87.0856 8.8552 87.1225 8.80414C87.1595 8.82967 87.2334 8.82968 87.2704 8.85521C87.2704 8.88074 87.2335 8.9318 87.2335 8.9318ZM87.4922 7.88501C87.2334 8.21692 87.0116 8.39564 86.605 8.57436C86.642 8.14033 87.0117 8.06374 87.4922 7.88501ZM85.2005 9.67221C85.2374 9.69774 85.2744 9.74881 85.3483 9.79987C85.2744 9.85093 85.2374 9.90199 85.1635 9.92753C85.1265 9.87646 85.0157 9.8254 85.0157 9.79987C85.0157 9.74881 85.1265 9.69774 85.2005 9.67221ZM85.0526 10.5913C85.0896 10.6169 85.1635 10.6424 85.2005 10.6679C85.2005 10.6935 85.1635 10.7445 85.0896 10.7701C85.0526 10.7701 84.9787 10.7445 84.9417 10.719C84.9787 10.6679 85.0156 10.6424 85.0526 10.5913ZM84.7199 8.54883C84.7569 8.54883 84.7939 8.57436 84.7939 8.57436C84.7569 8.59989 84.7199 8.65095 84.7199 8.67649C84.683 8.65095 84.609 8.62543 84.5721 8.59989C84.609 8.59989 84.683 8.57436 84.7199 8.54883ZM82.3913 12.6083C82.3913 12.6339 82.4282 12.6594 82.4282 12.6594C82.3913 12.6849 82.3543 12.7104 82.3173 12.736C82.3173 12.7104 82.2804 12.6849 82.2804 12.6849C82.2804 12.6594 82.3543 12.6339 82.3913 12.6083ZM75.627 14.6253C75.5161 14.7274 75.3682 14.8296 75.1834 14.9827C75.1834 14.6764 75.4052 14.6508 75.627 14.6253ZM76.4032 14.8806C76.625 14.7785 76.8098 14.5998 76.9946 14.4721C77.2533 14.421 77.549 14.37 77.8448 14.3445C77.9187 15.1104 77.4382 15.5189 76.0335 15.9529C75.9966 15.8508 75.9227 15.7231 75.8487 15.57C75.4052 15.7997 75.1095 16.0551 74.9986 16.4125C74.8877 16.7699 74.8877 16.7444 74.4072 16.7189C74.1484 16.6933 73.9266 16.6933 73.6309 16.6678C73.7418 16.2593 74.0375 16.004 74.4811 15.7997C75.1464 15.4934 75.7748 15.187 76.4032 14.8806ZM56.7387 11.4339C56.8126 11.4083 56.9235 11.3828 56.9974 11.3573C57.0344 11.4083 57.0714 11.4594 57.0714 11.4849C56.9975 11.536 56.8866 11.5871 56.7757 11.6381C56.7387 11.5871 56.7387 11.5615 56.7018 11.5105C56.7018 11.4594 56.7017 11.4339 56.7387 11.4339ZM35.3369 6.22548C35.3369 6.40419 35.226 6.55738 34.8564 6.53185C35.0412 6.42973 35.1891 6.3276 35.3369 6.22548ZM27.168 10.9232C27.2789 10.8467 27.4268 10.8211 27.5746 10.7445C27.6116 10.7956 27.6855 10.8211 27.7225 10.8722C27.6116 10.9488 27.5007 11.0509 27.3898 11.1275C27.3159 11.153 27.205 11.1275 27.1311 11.1275C27.1311 11.0509 27.1311 10.9743 27.168 10.9232ZM21.6236 14.0125C21.6975 14.2423 21.5866 14.3955 21.217 14.4721C21.217 14.2679 21.4018 14.1147 21.6236 14.0125ZM21.217 14.4721C21.0321 14.5232 20.8103 14.5742 20.7364 14.3189C20.9212 14.37 21.0691 14.421 21.217 14.4721ZM18.5186 15.0083C18.5186 14.9827 18.5925 14.9827 18.5925 14.9827C18.5925 15.0083 18.5925 15.0593 18.5925 15.0849L18.5186 15.0593C18.5186 15.0593 18.5186 15.0338 18.5186 15.0083Z" fill="url(#paint0_linear_573_1015)"/>
<defs>
<linearGradient id="paint0_linear_573_1015" x1="130" y1="10" x2="0" y2="10" gradientUnits="userSpaceOnUse">
<stop stop-color="#EB5E28"/>
<stop offset="1" stop-color="white" stop-opacity="0.4"/>
</linearGradient>
</defs>
</svg>
